<?xml version="1.0" standalone="no"?>
<svg xmlns:xlink="http://www.w3.org/1999/xlink" id="wave" style="transform:rotate(0deg); transition: 0.3s" viewBox="0 0 1440 490" version="1.1" xmlns="http://www.w3.org/2000/svg"><defs><linearGradient id="sw-gradient-0" x1="0" x2="0" y1="1" y2="0"><stop stop-color="rgba(62, 206.212, 243, 1)" offset="0%"/><stop stop-color="rgba(11, 114.489, 255, 1)" offset="100%"/></linearGradient></defs><path style="transform:translate(0, 0px); opacity:1" fill="url(#sw-gradient-0)" d="M0,98L80,138.8C160,180,320,261,480,294C640,327,800,310,960,326.7C1120,343,1280,392,1440,416.5C1600,441,1760,441,1920,392C2080,343,2240,245,2400,196C2560,147,2720,147,2880,138.8C3040,131,3200,114,3360,114.3C3520,114,3680,131,3840,163.3C4000,196,4160,245,4320,269.5C4480,294,4640,294,4800,253.2C4960,212,5120,131,5280,114.3C5440,98,5600,147,5760,155.2C5920,163,6080,131,6240,114.3C6400,98,6560,98,6720,106.2C6880,114,7040,131,7200,179.7C7360,229,7520,310,7680,359.3C7840,408,8000,425,8160,408.3C8320,392,8480,343,8640,334.8C8800,327,8960,359,9120,310.3C9280,261,9440,131,9600,122.5C9760,114,9920,229,10080,261.3C10240,294,10400,245,10560,228.7C10720,212,10880,229,11040,228.7C11200,229,11360,212,11440,204.2L11520,196L11520,490L11440,490C11360,490,11200,490,11040,490C10880,490,10720,490,10560,490C10400,490,10240,490,10080,490C9920,490,9760,490,9600,490C9440,490,9280,490,9120,490C8960,490,8800,490,8640,490C8480,490,8320,490,8160,490C8000,490,7840,490,7680,490C7520,490,7360,490,7200,490C7040,490,6880,490,6720,490C6560,490,6400,490,6240,490C6080,490,5920,490,5760,490C5600,490,5440,490,5280,490C5120,490,4960,490,4800,490C4640,490,4480,490,4320,490C4160,490,4000,490,3840,490C3680,490,3520,490,3360,490C3200,490,3040,490,2880,490C2720,490,2560,490,2400,490C2240,490,2080,490,1920,490C1760,490,1600,490,1440,490C1280,490,1120,490,960,490C800,490,640,490,480,490C320,490,160,490,80,490L0,490Z"/></svg>